<svg width="1200" height="760" viewBox="0 0 1200 760" fill="none" xmlns="http://www.w3.org/2000/svg">
  <defs>
    <linearGradient id="bg2" x1="0" y1="0" x2="1200" y2="760" gradientUnits="userSpaceOnUse">
      <stop stop-color="#F6F9FC"/>
      <stop offset="1" stop-color="#E6EEF8"/>
    </linearGradient>
    <linearGradient id="barA" x1="0" y1="0" x2="1" y2="0">
      <stop stop-color="#0D9488"/>
      <stop offset="1" stop-color="#22C55E"/>
    </linearGradient>
    <linearGradient id="barB" x1="0" y1="0" x2="1" y2="0">
      <stop stop-color="#2563EB"/>
      <stop offset="1" stop-color="#06B6D4"/>
    </linearGradient>
    <linearGradient id="barC" x1="0" y1="0" x2="1" y2="0">
      <stop stop-color="#F97316"/>
      <stop offset="1" stop-color="#FACC15"/>
    </linearGradient>
  </defs>

  <rect width="1200" height="760" rx="28" fill="url(#bg2)"/>
  <text x="72" y="88" fill="#12263F" font-family="Segoe UI, Arial, sans-serif" font-size="40" font-weight="700">Corpus Snapshot</text>
  <text x="72" y="122" fill="#526A86" font-family="Segoe UI, Arial, sans-serif" font-size="20">Current project counts pulled from PROJECT_CONTEXT.md</text>

  <rect x="72" y="164" width="300" height="150" rx="24" fill="#FFFFFF" stroke="#D7E3F0"/>
  <rect x="396" y="164" width="300" height="150" rx="24" fill="#FFFFFF" stroke="#D7E3F0"/>
  <rect x="720" y="164" width="408" height="150" rx="24" fill="#FFFFFF" stroke="#D7E3F0"/>

  <text x="100" y="212" fill="#5D728D" font-family="Segoe UI, Arial, sans-serif" font-size="18">Normalized evidence</text>
  <text x="100" y="266" fill="#0F172A" font-family="Segoe UI, Arial, sans-serif" font-size="44" font-weight="700">19,715</text>

  <text x="424" y="212" fill="#5D728D" font-family="Segoe UI, Arial, sans-serif" font-size="18">Retrieval chunks</text>
  <text x="424" y="266" fill="#0F172A" font-family="Segoe UI, Arial, sans-serif" font-size="44" font-weight="700">58,938</text>

  <text x="748" y="212" fill="#5D728D" font-family="Segoe UI, Arial, sans-serif" font-size="18">Embedding model</text>
  <text x="748" y="252" fill="#0F172A" font-family="Segoe UI, Arial, sans-serif" font-size="28" font-weight="700">all-MiniLM-L6-v2</text>
  <text x="748" y="287" fill="#5D728D" font-family="Segoe UI, Arial, sans-serif" font-size="18">384 dimensions</text>

  <rect x="72" y="350" width="1056" height="338" rx="28" fill="#FFFFFF" stroke="#D7E3F0"/>

  <text x="104" y="396" fill="#12263F" font-family="Segoe UI, Arial, sans-serif" font-size="26" font-weight="700">Top source volumes</text>

  <text x="104" y="458" fill="#4A617E" font-family="Segoe UI, Arial, sans-serif" font-size="20">FoodData Central</text>
  <rect x="320" y="438" width="650" height="28" rx="14" fill="#E5EDF6"/>
  <rect x="320" y="438" width="650" height="28" rx="14" fill="url(#barA)"/>
  <text x="990" y="458" fill="#12263F" font-family="Segoe UI, Arial, sans-serif" font-size="20" font-weight="700">13,590</text>

  <text x="104" y="516" fill="#4A617E" font-family="Segoe UI, Arial, sans-serif" font-size="20">PubMed</text>
  <rect x="320" y="496" width="650" height="28" rx="14" fill="#E5EDF6"/>
  <rect x="320" y="496" width="158" height="28" rx="14" fill="url(#barB)"/>
  <text x="990" y="516" fill="#12263F" font-family="Segoe UI, Arial, sans-serif" font-size="20" font-weight="700">3,295</text>

  <text x="104" y="574" fill="#4A617E" font-family="Segoe UI, Arial, sans-serif" font-size="20">ExRx</text>
  <rect x="320" y="554" width="650" height="28" rx="14" fill="#E5EDF6"/>
  <rect x="320" y="554" width="56" height="28" rx="14" fill="url(#barC)"/>
  <text x="990" y="574" fill="#12263F" font-family="Segoe UI, Arial, sans-serif" font-size="20" font-weight="700">1,173</text>

  <text x="104" y="632" fill="#4A617E" font-family="Segoe UI, Arial, sans-serif" font-size="20">PMC</text>
  <rect x="320" y="612" width="650" height="28" rx="14" fill="#E5EDF6"/>
  <rect x="320" y="612" width="28" height="28" rx="14" fill="url(#barB)"/>
  <text x="990" y="632" fill="#12263F" font-family="Segoe UI, Arial, sans-serif" font-size="20" font-weight="700">576</text>

  <text x="72" y="724" fill="#697F99" font-family="Segoe UI, Arial, sans-serif" font-size="16">Interpretation: strong nutrition breadth, useful exercise coverage, and enough grounded material for retrieval-backed training.</text>
</svg>
